<?xml version="1.0" encoding="UTF-8"?><svg id="Layer_1" xmlns="http://www.w3.org/2000/svg" width="1080" height="981.89" viewBox="0 0 1080 981.89"><path d="M103.66,865.86c-9.82,17.31-9.48,17.85,11.78,17.85h849.1c21.23,0,21.58-.59,11.78-17.85L548.88,111.02c-9.67-17.11-8.1-17.11-17.77,0L103.66,865.83v.02ZM634.3,62.59l427.47,754.83c47.18,83.39-1.45,164.47-97.23,164.47H115.44c-95.86,0-144.36-81.13-97.21-164.42L445.68,62.64c47.28-83.53,141.39-83.51,188.65,0l-.02-.05ZM539.99,810.06c27.11,0,49.09-21.98,49.09-49.09s-21.98-49.09-49.09-49.09-49.09,21.98-49.09,49.09,21.98,49.09,49.09,49.09ZM490.9,368.21v245.47c0,27.11,21.98,49.09,49.09,49.09s49.09-21.98,49.09-49.09v-245.47c0-27.11-21.98-49.09-49.09-49.09s-49.09,21.98-49.09,49.09Z" style="fill:#fff;"/></svg>