<?xml version="1.0" encoding="UTF-8"?>
<svg id="Layer_1" xmlns="http://www.w3.org/2000/svg" width="1920" height="480"
     xmlns:xlink="http://www.w3.org/1999/xlink" viewBox="0 0 1920 480">
    <defs>
        <linearGradient id="linear-gradient" x1="58.96" y1="96.55" x2="330.27" y2="378.12"
                        gradientTransform="translate(0 482) scale(1 -1)" gradientUnits="userSpaceOnUse">
            <stop offset="0" stop-color="#065d7c"/>
            <stop offset=".54" stop-color="#71aac1"/>
            <stop offset="1" stop-color="#fd6b45"/>
        </linearGradient>
        <linearGradient id="linear-gradient-2" x1=".96" y1="154.37" x2="272.26" y2="435.94"
                        xlink:href="#linear-gradient"/>
        <linearGradient id="linear-gradient-3" x1="137.16" y1="8.3" x2="519.03" y2="404.62"
                        xlink:href="#linear-gradient"/>
        <linearGradient id="linear-gradient-4" x1="53.01" y1="100.7" x2="324.31" y2="382.27"
                        xlink:href="#linear-gradient"/>
    </defs>
    <path d="M1896.08,298.23c-.23-.23-.46-.23-.69-.23h-14.53c-.23,0-.46,0-.69.23s-.23.46-.23.69,0,.46.23.69.46.23.69.23h6.23v17.53c0,.23,0,.46.23.69s.46.23.69.23.46,0,.69-.23.23-.46.23-.69v-17.53h6.23c.23,0,.46,0,.69-.23.23-.23.23-.46.23-.69.23-.23.23-.46,0-.69Z"
          style="fill:#fd6a46;"/>
    <path d="M1900.23,318.53c-.23,0-.46,0-.69-.23s-.23-.46-.23-.69v-18.45c0-.23,0-.46.23-.69s.46-.23.69-.23c.46,0,.69.23.92.46l8.76,17.53h-.92l8.76-17.53c.23-.46.46-.46.92-.46.23,0,.46,0,.69.23s.23.46.23.69v18.45c0,.23,0,.46-.23.69s-.46.23-.69.23-.46,0-.69-.23-.23-.46-.23-.69v-15.92h.46l-7.84,15.92c-.23.23-.46.46-.92.46s-.69-.23-.92-.69l-7.84-15.68.46-.23v15.92c0,.23,0,.46-.23.69,0,.23-.23.46-.69.46Z"
          style="fill:#fd6a46;"/>
    <path d="M1395.55,317.84c-8.3,0-15.45-2.31-21.68-6.69-6.23-4.38-11.3-10.61-14.76-18.22-3.46-7.61-5.31-16.61-5.31-26.76V113.7c0-4.15,1.38-7.38,3.92-10.15,2.54-2.54,6-3.92,10.15-3.92s7.38,1.38,10.15,3.92c2.54,2.54,3.92,6,3.92,10.15v152.47c0,6.92,1.38,12.46,3.92,17.07,2.54,4.38,6,6.69,10.15,6.69h6.92c3.69,0,6.69,1.38,9,3.92,2.31,2.54,3.46,6,3.46,10.15s-1.85,7.38-5.31,10.15c-3.46,2.54-8.07,3.92-13.61,3.92h-.92v-.23Z"
          style="fill:#fd6a46;"/>
    <path d="M1558.17,202.04c-6.69-11.76-15.92-20.99-27.45-27.91-11.53-6.69-24.68-10.15-39.21-10.15s-27.68,3.46-39.21,10.15c-11.53,6.69-20.76,16.15-27.68,27.91-6.69,11.76-10.15,24.91-10.15,39.67s3.23,27.91,9.46,39.44c6.23,11.53,14.76,20.76,25.6,27.68,10.84,6.69,23.07,10.15,36.67,10.15s25.83-3.46,36.67-10.15c6.69-4.15,12.46-9.46,17.3-15.45v10.61c0,4.15,1.38,7.61,4.15,10.15,2.77,2.77,6,4.15,10.15,4.15s7.61-1.38,10.15-4.15c2.77-2.77,4.15-6,4.15-10.15v-62.28c-.46-14.76-3.92-27.91-10.61-39.67ZM1534.41,268.24c-4.38,7.84-10.15,14.07-17.53,18.68-7.38,4.61-15.92,6.92-25.37,6.92s-17.76-2.31-25.37-6.92c-7.61-4.61-13.61-10.84-17.99-18.68-4.38-7.84-6.46-16.84-6.46-26.76s2.08-19.14,6.46-26.99c4.38-7.84,10.38-14.07,17.99-18.68,7.61-4.61,15.92-6.92,25.37-6.92s17.99,2.31,25.37,6.92c7.38,4.61,13.38,10.84,17.53,18.68,4.38,7.84,6.46,16.84,6.46,26.99s-2.08,18.91-6.46,26.76Z"
          style="fill:#fd6a46;"/>
    <path d="M1809.81,318.99c-13.15,0-25.14-2.08-36.21-6-11.07-3.92-19.61-9-25.83-15.22-2.77-3-3.92-6.46-3.46-10.15.46-3.92,2.31-6.92,5.54-9.46,3.69-3,7.38-4.15,11.07-3.69,3.69.46,6.69,2.08,9.46,4.84,3.23,3.46,8.3,6.92,15.22,9.92,6.92,3,14.76,4.61,23.3,4.61,10.84,0,19.14-1.85,24.68-5.31,5.77-3.46,8.53-8.07,8.76-13.61.23-5.54-2.54-10.38-8.07-14.53-5.54-4.15-15.45-7.38-29.99-10.15-18.91-3.69-32.52-9.23-40.83-16.84-8.53-7.38-12.69-16.61-12.69-27.45,0-9.46,2.77-17.3,8.3-23.53,5.54-6.23,12.69-10.84,21.45-14.07,8.76-3,17.99-4.61,27.45-4.61,12.22,0,23.3,1.85,32.75,5.77,9.46,3.92,17.07,9.23,22.6,16.15,2.54,3,3.92,6,3.69,9.46-.23,3.23-1.85,6-4.84,8.3-3,2.08-6.46,2.77-10.61,1.85-4.15-.69-7.61-2.31-10.38-5.07-4.61-4.38-9.69-7.61-14.99-9.23-5.31-1.61-11.53-2.54-18.68-2.54-8.3,0-15.22,1.38-20.76,4.15-5.77,2.77-8.53,6.92-8.53,12.22,0,3.46.92,6.46,2.77,9,1.85,2.77,5.31,5.07,10.38,7.15,5.31,2.08,12.92,4.15,22.84,6.23,14.07,2.77,24.91,6.23,33.21,10.61,8.07,4.38,13.84,9.23,17.53,14.99,3.46,5.77,5.31,12.22,5.31,19.61,0,8.53-2.31,16.38-6.92,23.3s-11.3,12.46-20.07,16.38c-9.23,4.84-20.3,6.92-33.45,6.92Z"
          style="fill:#fd6a46;"/>
    <path d="M1637.05,178.98c.23,7.38,6.92,13.15,14.07,11.53,3.69-.92,7.38-1.15,11.53-1.15,9.46,0,17.99,2.31,25.37,6.92,7.38,4.61,13.38,10.84,17.76,18.68,4.38,7.84,6.46,16.84,6.46,26.76s-2.08,18.91-6.46,26.76c-4.38,8.07-10.38,14.3-17.76,18.91-7.38,4.61-15.92,6.92-25.37,6.92s-17.76-2.31-25.37-6.92c-7.61-4.61-13.38-10.84-17.76-18.91-4.38-8.07-6.46-16.84-6.46-26.76v-52.36h0v-75.43c0-4.38-1.38-7.61-3.92-10.38-2.54-2.54-6-3.92-10.38-3.92-4.15,0-7.61,1.38-10.15,3.92-2.77,2.54-4.15,6-4.15,10.38v127.32c.23,14.76,3.69,27.91,10.38,39.67,6.69,11.76,15.92,20.99,27.45,27.91,11.53,6.69,24.68,10.15,39.21,10.15s27.91-3.46,39.44-10.15c11.53-6.69,20.76-16.15,27.45-27.91,6.69-11.76,10.15-24.91,10.15-39.67s-3.23-27.91-9.46-39.44c-6.23-11.53-14.76-20.76-25.6-27.68-10.84-6.69-23.07-10.15-36.67-10.15-8.07,0-15.45,1.15-22.37,3.69-4.38,1.38-7.38,6.23-7.38,11.3h0Z"
          style="fill:#fd6a46;"/>
    <path d="M931.24,196.05c-5.77-10.61-13.84-18.68-23.99-24.22-10.15-5.54-21.68-8.3-34.6-8.3-12.22,0-23.3,2.77-33.21,8.07-5.31,3-10.15,6.46-14.3,10.61v-3c0-4.38-1.38-7.61-3.92-10.38-2.54-2.54-6-3.92-10.38-3.92-4.15,0-7.61,1.38-10.15,3.92-2.77,2.54-4.15,6-4.15,10.38v124.56c0,4.15,1.38,7.61,4.15,10.15,2.77,2.77,6,4.15,10.15,4.15,4.38,0,7.61-1.38,10.38-4.15,2.54-2.77,3.92-6,3.92-10.15v-78.89c0-6.92,1.85-12.92,5.54-18.22,3.69-5.31,8.76-9.46,14.99-12.69,6.23-3.23,13.38-4.84,21.22-4.84,8.53,0,16.15,1.61,22.84,4.84,6.69,3.23,11.76,8.3,15.68,14.99,3.92,6.69,5.77,15.45,5.77,26.06v68.74c0,4.15,1.38,7.61,4.15,10.15,2.77,2.77,6,4.15,10.15,4.15s7.61-1.38,10.15-4.15c2.77-2.77,4.15-6,4.15-10.15v-68.74c.23-15.22-2.77-28.37-8.53-38.98Z"
          style="fill:#71aac1;"/>
    <path d="M1276.99,202.04c-6.69-11.76-15.92-20.99-27.45-27.91-11.53-6.69-24.68-10.15-39.21-10.15s-27.68,3.46-39.21,10.15c-11.53,6.69-20.76,16.15-27.68,27.91-6.69,11.76-10.15,24.91-10.15,39.67s3.23,27.91,9.46,39.44c6.23,11.53,14.76,20.76,25.6,27.68,10.84,6.69,23.07,10.15,36.67,10.15s25.83-3.46,36.67-10.15c6.69-4.15,12.46-9.46,17.3-15.45v10.61c0,4.15,1.38,7.61,4.15,10.15,2.77,2.77,6,4.15,10.15,4.15s7.61-1.38,10.15-4.15c2.77-2.77,4.15-6,4.15-10.15v-62.28c-.46-14.76-3.92-27.91-10.61-39.67ZM1253.47,268.24c-4.38,7.84-10.15,14.07-17.53,18.68-7.38,4.61-15.92,6.92-25.37,6.92s-17.76-2.31-25.37-6.92c-7.61-4.61-13.61-10.84-17.99-18.68-4.38-7.84-6.46-16.84-6.46-26.76s2.08-19.14,6.46-26.99c4.38-7.84,10.38-14.07,17.99-18.68,7.61-4.61,15.92-6.92,25.37-6.92s17.99,2.31,25.37,6.92c7.38,4.61,13.38,10.84,17.53,18.68,4.38,7.84,6.46,16.84,6.46,26.99-.23,9.92-2.31,18.91-6.46,26.76Z"
          style="fill:#71aac1;"/>
    <path d="M1034.57,321.53c-40.37,0-73.35-32.75-73.35-73.12v-69.66c0-7.38,6-13.38,13.61-13.38s13.61,6,13.61,13.38v69.89c0,25.37,20.76,46.13,46.36,46.13s46.36-20.76,46.36-46.13v-70.12c0-7.38,6-13.61,13.61-13.61s13.61,6,13.61,13.61v69.89c-.46,40.37-33.45,73.12-73.81,73.12Z"
          style="fill:#71aac1;"/>
    <path d="M1034.57,406.64c-34.14,0-63.66-23.07-71.5-56.28-1.61-7.15,2.77-14.53,9.92-16.15,7.15-1.61,14.53,2.77,16.15,9.92,4.84,20.76,23.53,35.52,45.21,35.52s40.37-14.53,45.21-35.52c1.61-7.15,9-11.76,16.15-10.15,7.15,1.61,11.76,9,10.15,16.15-7.61,33.21-36.91,56.51-71.27,56.51Z"
          style="fill:#71aac1;"/>
    <path d="M774.85,237.1c0-15.22-2.77-28.83-8.53-40.6-5.77-11.76-14.07-20.99-24.91-27.68-10.84-6.69-23.76-9.92-38.98-9.92s-28.83,3.46-40.6,10.38c-11.76,6.92-20.99,16.38-27.68,28.6-6.69,12.22-9.92,26.06-9.92,41.98s3.46,29.52,10.61,41.75c7.15,12.22,16.84,21.68,29.29,28.6,12.46,6.92,26.76,10.38,42.9,10.38,9,0,18.22-1.61,28.14-4.84,9.69-3.23,17.99-7.61,24.45-12.69,3.23-2.54,4.84-5.54,4.61-9s-1.85-6.69-5.31-9.69c-2.54-2.08-5.54-3.23-8.76-3-3.46,0-6.46,1.15-9.46,3.23-3.92,3-9,5.54-15.22,7.61-6.23,2.31-12.46,3.23-18.45,3.23-11.07,0-20.76-2.31-29.29-7.38-8.53-4.84-15.22-11.53-20.07-19.84-4.84-8.3-7.38-17.76-7.38-28.6s2.08-20.3,6-28.6c4.15-8.53,9.92-14.99,17.99-19.84,7.84-4.84,17.3-7.38,28.37-7.38,9.69,0,17.99,2.31,24.68,6.69,6.69,4.38,11.99,10.61,15.68,18.22,3,6.23,4.84,12.92,5.54,20.53h-65.28c-6.46,0-11.53,5.31-11.53,11.53s5.31,11.53,11.53,11.53h79.58c6.46,0,11.53-5.31,11.53-11.53h0c.23-1.15.46-2.31.46-3.69Z"
          style="fill:#71aac1;"/>
    <path d="M238.57,120.62c-55.36,0-101.95,38.06-115.33,89.5h230.66c-13.15-51.44-59.74-89.5-115.33-89.5Z"
          style="fill:url(#linear-gradient);"/>
    <path d="M85.18,412.87c-7.84,0-15.92-3.23-21.68-9.46C22.21,358.89-.39,300.77-.39,240.1S22.21,121.54,63.5,76.8c11.07-11.99,29.75-12.69,41.75-1.61,11.99,11.07,12.69,29.75,1.61,41.75-31.14,33.68-48.21,77.5-48.21,123.17s17.07,89.73,48.21,123.4c11.07,11.99,10.38,30.68-1.61,41.75-5.77,5.07-12.92,7.61-20.07,7.61Z"
          style="fill:url(#linear-gradient-2);"/>
    <path d="M427.48,270.78H123.7c13.38,51.21,59.74,89.5,115.33,89.5,23.76,0,46.59-6.92,65.97-19.84,11.76-7.84,27.22-6.23,37.14,3.69l.69.69c12.22,12.22,11.07,32.06-1.61,42.9-21.68,14.99-46.13,25.14-72.2,29.75-1.15.23-2.31.46-3.46.69-8.3,1.38-16.84,2.08-25.37,2.31-14.3.23-28.6-1.15-42.67-4.15-16.15-3.46-31.83,6.69-35.52,22.6-3.46,16.15,6.69,31.83,22.6,35.52,18.45,3.92,37.37,6,56.28,5.54,10.15-.23,20.3-.92,30.22-2.54.69,0,1.15,0,1.85-.23,50.74-7.15,97.8-30.45,134.7-67.35.46-.46,2.54-2.77,2.77-3,23.99-24.91,41.98-53.97,53.05-85.8,8.53-24.91-9.92-50.28-35.98-50.28Z"
          style="fill:url(#linear-gradient-3);"/>
    <path d="M441.78,213.58c-12.92,0-24.68-8.53-28.37-21.45-21.91-77.96-93.88-132.4-175.07-132.4-15.45,0-30.68,1.85-45.44,5.77-15.68,3.92-31.83-5.54-35.98-21.22-3.69-15.68,5.77-31.83,21.45-35.75,19.61-5.07,39.67-7.61,59.97-7.61,107.26,0,202.52,71.97,231.81,175.3,4.38,15.68-4.61,32.06-20.3,36.44-2.77.69-5.31.92-8.07.92Z"
          style="fill:url(#linear-gradient-4);"/>
</svg>