<?xml version="1.0" encoding="UTF-8"?><svg id="Layer_1" xmlns="http://www.w3.org/2000/svg" width="1920" height="188.02" viewBox="0 0 1920 188.02"><polygon points="1202.08 60.82 1202.08 86.48 1172.62 86.48 1172.62 60.82 1157.47 60.82 1157.47 125.89 1172.62 125.89 1172.62 99.21 1202.08 99.21 1202.08 125.89 1217.14 125.89 1217.14 60.82 1202.08 60.82"/><path d="M1265.48,75.88l-14.19,33.93-14.07-33.93h-14.87l21.56,50.42-.18.42c-.99,2.23-2.09,3.83-3.3,4.79-1.21.96-2.8,1.44-4.79,1.44-1.49,0-2.96-.28-4.42-.84-1.45-.56-2.74-1.36-3.86-2.42l-5.3,10.41c1.67,1.42,3.78,2.54,6.32,3.35,2.54.81,5.08,1.21,7.62,1.21,3.04,0,5.81-.46,8.32-1.4,2.51-.93,4.8-2.53,6.88-4.79,2.07-2.26,3.92-5.44,5.53-9.53l22.59-53.07h-13.85,0Z"/><path d="M1333.19,87.31c-2.2-3.84-5.18-6.83-8.92-8.97-3.75-2.14-8.01-3.21-12.78-3.21-4.15,0-7.81.93-10.97,2.79-1.49.88-2.82,1.99-4,3.29v-24.3h-14.5v68.97h13.85v-5.77c1.26,1.53,2.73,2.8,4.42,3.77,3.19,1.83,6.92,2.74,11.2,2.74,4.77,0,9.03-1.07,12.78-3.21,3.75-2.14,6.72-5.13,8.92-8.97,2.2-3.84,3.3-8.37,3.3-13.57s-1.1-9.73-3.3-13.57h0ZM1320.09,108.32c-1.15,2.11-2.67,3.7-4.56,4.79-1.89,1.09-4.04,1.63-6.46,1.63s-4.59-.54-6.51-1.63c-1.92-1.09-3.46-2.68-4.6-4.79-1.15-2.11-1.72-4.58-1.72-7.44s.57-5.39,1.72-7.43c1.14-2.04,2.68-3.61,4.6-4.7,1.92-1.08,4.09-1.63,6.51-1.63s4.57.54,6.46,1.63c1.89,1.09,3.41,2.65,4.56,4.7,1.14,2.04,1.72,4.52,1.72,7.43s-.57,5.33-1.72,7.44h0Z"/><path d="M1373.95,75.14v13.48c-.56-.13-1.1-.22-1.63-.28-.53-.06-1.04-.09-1.53-.09-4.09,0-7.34,1.15-9.76,3.44-2.42,2.29-3.63,5.82-3.63,10.59v23.61h-14.5v-50.01h13.85v6.56c1.37-1.87,3.1-3.4,5.21-4.57,3.28-1.83,7.28-2.74,11.99-2.74h0Z"/><path d="M1389.85,68.91c-2.73,0-4.93-.77-6.6-2.32-1.67-1.55-2.51-3.47-2.51-5.76s.84-4.21,2.51-5.76c1.67-1.55,3.87-2.32,6.6-2.32s4.85.73,6.55,2.18c1.7,1.46,2.55,3.33,2.55,5.62,0,2.42-.84,4.42-2.51,5.99-1.67,1.58-3.87,2.37-6.6,2.37h0ZM1382.6,75.88h14.5v50.01h-14.5v-50.01h0Z"/><path d="M1443.3,56.92v24.22c-1.15-1.27-2.44-2.35-3.9-3.21-3.16-1.86-6.85-2.79-11.06-2.79-4.71,0-8.96,1.07-12.73,3.21-3.78,2.14-6.75,5.13-8.92,8.97-2.17,3.84-3.25,8.37-3.25,13.57s1.08,9.73,3.25,13.57c2.17,3.84,5.14,6.83,8.92,8.97,3.78,2.14,8.02,3.21,12.73,3.21,4.4,0,8.16-.91,11.29-2.74,1.65-.96,3.08-2.22,4.32-3.74v5.74h13.85V56.92h-14.5ZM1441.85,108.32c-1.15,2.11-2.68,3.7-4.6,4.79-1.92,1.09-4.09,1.63-6.51,1.63s-4.49-.54-6.41-1.63c-1.92-1.09-3.45-2.68-4.6-4.79-1.15-2.11-1.72-4.58-1.72-7.44s.57-5.39,1.72-7.43c1.15-2.04,2.68-3.61,4.6-4.7,1.92-1.08,4.06-1.63,6.41-1.63s4.58.54,6.51,1.63c1.92,1.09,3.45,2.65,4.6,4.7,1.15,2.04,1.72,4.52,1.72,7.43s-.57,5.33-1.72,7.44h0Z"/><path d="M1497.14,125.45c-5.02,0-9.68-.82-13.99-2.46-4.31-1.64-8.04-3.98-11.2-7.02-3.16-3.04-5.62-6.6-7.39-10.69-1.77-4.09-2.65-8.58-2.65-13.47s.88-9.39,2.65-13.48c1.77-4.09,4.24-7.65,7.44-10.69,3.19-3.04,6.94-5.38,11.25-7.02,4.31-1.64,8.97-2.46,13.99-2.46,5.63,0,10.75.98,15.33,2.93,4.58,1.95,8.43,4.82,11.53,8.6l-9.76,8.92c-2.17-2.54-4.63-4.46-7.39-5.76-2.76-1.3-5.75-1.95-8.97-1.95-3.04,0-5.82.51-8.37,1.53-2.54,1.02-4.74,2.46-6.6,4.32-1.86,1.86-3.3,4.06-4.32,6.6-1.02,2.54-1.53,5.36-1.53,8.46s.51,5.92,1.53,8.46c1.02,2.54,2.46,4.74,4.32,6.6,1.86,1.86,4.06,3.3,6.6,4.32,2.54,1.02,5.33,1.53,8.37,1.53,3.22,0,6.21-.67,8.97-2,2.76-1.33,5.22-3.27,7.39-5.81l9.76,8.92c-3.1,3.78-6.94,6.66-11.53,8.64-4.58,1.98-9.73,2.97-15.43,2.97h0Z" style="fill:#acd905;"/><path d="M1552.73,125.08c-5.27,0-9.96-1.12-14.08-3.35-4.12-2.23-7.36-5.28-9.71-9.15-2.36-3.87-3.53-8.29-3.53-13.25s1.18-9.47,3.53-13.34c2.36-3.87,5.59-6.91,9.71-9.11,4.12-2.2,8.81-3.3,14.08-3.3s10.07,1.1,14.22,3.3c4.15,2.2,7.41,5.24,9.76,9.11,2.35,3.87,3.53,8.32,3.53,13.34s-1.18,9.45-3.53,13.29c-2.36,3.84-5.61,6.88-9.76,9.11-4.15,2.23-8.89,3.35-14.22,3.35h0Z" style="fill:#acd905;"/><path d="M1667.52,83.2c-1.74-3.25-4.14-5.67-7.2-7.25-3.07-1.58-6.59-2.37-10.55-2.37-4.83,0-9.08,1.16-12.73,3.48-2.09,1.33-3.81,2.93-5.26,4.75-1.18-1.92-2.66-3.52-4.5-4.75-3.47-2.32-7.5-3.48-12.08-3.48-4.03,0-7.65.88-10.87,2.65-1.85,1.01-3.41,2.32-4.74,3.87v-5.78h-13.85v50.01h14.5v-25.1c0-3.04.47-5.5,1.4-7.39.93-1.89,2.23-3.31,3.9-4.28,1.67-.96,3.56-1.44,5.67-1.44,3.1,0,5.47.96,7.11,2.88,1.64,1.92,2.46,4.9,2.46,8.92v26.4h14.5v-25.1c0-3.04.45-5.5,1.35-7.39.9-1.89,2.19-3.31,3.86-4.28,1.67-.96,3.59-1.44,5.76-1.44,2.97,0,5.28.96,6.93,2.88,1.64,1.92,2.46,4.9,2.46,8.92v26.4h14.5v-28.63c0-5.08-.87-9.25-2.6-12.5h0Z" style="fill:#acd905;"/><path d="M1731.15,85.76c-2.2-3.84-5.18-6.83-8.92-8.97-3.75-2.14-8.01-3.21-12.78-3.21-4.28,0-8.01.93-11.2,2.79-1.69.98-3.15,2.26-4.42,3.78v-5.83h-13.85v68.04h14.5v-23.38c1.18,1.31,2.51,2.43,4,3.3,3.16,1.86,6.82,2.79,10.97,2.79,4.77,0,9.03-1.07,12.78-3.21,3.75-2.14,6.72-5.11,8.92-8.92,2.2-3.81,3.3-8.35,3.3-13.62s-1.1-9.73-3.3-13.57h0ZM1718.05,106.72c-1.15,2.08-2.67,3.67-4.56,4.79-1.89,1.12-4.04,1.67-6.46,1.67s-4.59-.56-6.51-1.67c-1.92-1.12-3.46-2.71-4.6-4.79-1.15-2.07-1.72-4.54-1.72-7.39s.57-5.39,1.72-7.44c1.14-2.04,2.68-3.61,4.6-4.7,1.92-1.08,4.09-1.63,6.51-1.63s4.57.54,6.46,1.63c1.89,1.09,3.41,2.65,4.56,4.7,1.14,2.04,1.72,4.52,1.72,7.44s-.57,5.32-1.72,7.39h0Z" style="fill:#acd905;"/><path d="M1792.17,74.32v50.01h-13.75v-5.92c-1.39,1.64-3.03,2.97-4.93,4.02-3.22,1.77-6.76,2.65-10.6,2.65-4.22,0-7.93-.8-11.16-2.42-3.22-1.61-5.73-4.09-7.53-7.44-1.8-3.35-2.69-7.56-2.69-12.64v-28.26h14.5v26.03c0,4.21.89,7.29,2.65,9.25,1.77,1.95,4.26,2.92,7.48,2.92,2.23,0,4.21-.49,5.95-1.49,1.73-.99,3.11-2.48,4.14-4.46,1.02-1.98,1.53-4.46,1.53-7.44v-24.82h14.41,0Z" style="fill:#acd905;"/><path d="M1832.15,111.69c-1.61,1.24-3.59,1.86-5.95,1.86-1.86,0-3.33-.59-4.42-1.77-1.09-1.18-1.63-2.82-1.63-4.93v-20.26h12.36v-11.15h-12.36v-12.18h-14.59v12.18h-7.71v11.15h7.71v20.54c0,5.95,1.64,10.42,4.93,13.43,3.29,3.01,7.87,4.51,13.76,4.51,2.23,0,4.38-.26,6.46-.79,2.08-.53,3.83-1.32,5.25-2.37l-3.81-10.22h0Z" style="fill:#acd905;"/><path d="M1886.33,85.67c-2.29-3.84-5.41-6.82-9.34-8.92-3.94-2.11-8.35-3.16-13.25-3.16s-9.65,1.1-13.71,3.3c-4.06,2.2-7.22,5.25-9.48,9.16-2.26,3.9-3.39,8.34-3.39,13.29s1.17,9.37,3.53,13.24c2.36,3.87,5.67,6.93,9.94,9.15,4.28,2.23,9.26,3.35,14.97,3.35,4.52,0,8.52-.7,11.99-2.09,3.47-1.39,6.35-3.39,8.64-5.99l-7.72-8.37c-1.67,1.61-3.52,2.82-5.53,3.63-2.02.8-4.32,1.21-6.93,1.21-3.04,0-5.64-.54-7.81-1.63-2.17-1.08-3.87-2.65-5.11-4.7-.68-1.12-1.15-2.37-1.46-3.72h37.81c.06-.62.13-1.29.19-2,.06-.71.1-1.35.1-1.91,0-5.39-1.15-10.01-3.44-13.85h0ZM1857.29,86.18c1.89-1.08,4.07-1.63,6.55-1.63s4.65.54,6.51,1.63c1.86,1.09,3.31,2.59,4.37,4.51.7,1.27,1.13,2.71,1.33,4.28h-24.53c.24-1.55.68-2.97,1.36-4.23,1.05-1.95,2.53-3.47,4.41-4.56h0Z" style="fill:#acd905;"/><polygon points="1895.81 123.48 1895.81 110.27 1890.71 110.27 1890.71 108.95 1902.46 108.95 1902.46 110.27 1897.35 110.27 1897.35 123.48 1895.81 123.48" style="fill:#acd905;"/><polygon points="1904.9 123.48 1904.9 108.95 1906.17 108.95 1912.82 120.28 1912.15 120.28 1918.73 108.95 1920 108.95 1920 123.48 1918.52 123.48 1918.52 111.25 1918.88 111.25 1912.82 121.63 1912.09 121.63 1905.99 111.25 1906.38 111.25 1906.38 123.48 1904.9 123.48" style="fill:#acd905;"/><path d="M890.11,81.85c-1.41-2.05-3.35-3.61-5.81-4.68-.44-.19-.91-.35-1.38-.51,1.99-1.04,3.6-2.43,4.78-4.21,1.32-1.97,1.97-4.3,1.97-6.98,0-3.99-1.62-7.21-4.86-9.65-3.24-2.44-8.08-3.65-14.51-3.65h-25v51.16h26.46c6.72,0,11.81-1.23,15.27-3.69,3.46-2.46,5.19-5.88,5.19-10.27,0-2.97-.71-5.48-2.12-7.53ZM868.85,61.09c2.87,0,5.08.49,6.61,1.46,1.53.97,2.3,2.49,2.3,4.53s-.77,3.57-2.3,4.57c-1.54,1-3.74,1.5-6.61,1.5h-11.77v-12.06h11.77ZM877.91,92.88c-1.61,1.02-3.92,1.53-6.94,1.53h-13.89v-12.64h13.89c3.02,0,5.33.51,6.94,1.53,1.61,1.02,2.41,2.63,2.41,4.82s-.8,3.73-2.41,4.75Z"/><path d="M923.4,104.21c-4.04,0-7.77-.66-11.18-1.97-3.41-1.32-6.38-3.17-8.92-5.56-2.53-2.39-4.5-5.19-5.88-8.4-1.39-3.22-2.08-6.72-2.08-10.52s.69-7.37,2.08-10.56c1.39-3.19,3.35-5.98,5.88-8.37,2.53-2.39,5.49-4.24,8.88-5.55,3.39-1.32,7.1-1.97,11.15-1.97s7.76.65,11.15,1.94c3.39,1.29,6.35,3.13,8.88,5.52,2.53,2.39,4.49,5.19,5.88,8.4,1.39,3.22,2.08,6.75,2.08,10.6s-.69,7.32-2.08,10.56c-1.39,3.24-3.35,6.05-5.88,8.44-2.53,2.39-5.49,4.23-8.88,5.52-3.39,1.29-7.08,1.94-11.07,1.94ZM923.33,94.2c2.29,0,4.4-.4,6.32-1.21,1.92-.8,3.62-1.95,5.08-3.44,1.46-1.49,2.59-3.21,3.4-5.19.8-1.97,1.21-4.18,1.21-6.61s-.4-4.64-1.21-6.61c-.8-1.97-1.94-3.7-3.4-5.19-1.46-1.49-3.15-2.63-5.08-3.43-1.92-.8-4.03-1.21-6.32-1.21s-4.41.4-6.36,1.21c-1.95.8-3.64,1.95-5.08,3.43-1.44,1.49-2.56,3.22-3.36,5.19-.8,1.97-1.21,4.18-1.21,6.61s.4,4.64,1.21,6.61c.8,1.97,1.92,3.7,3.36,5.19,1.44,1.49,3.13,2.63,5.08,3.44,1.95.8,4.07,1.21,6.36,1.21Z"/><path d="M1002.37,81.85c-1.41-2.05-3.35-3.61-5.81-4.68-.44-.19-.91-.35-1.38-.51,1.99-1.04,3.6-2.43,4.78-4.21,1.32-1.97,1.97-4.3,1.97-6.98,0-3.99-1.62-7.21-4.86-9.65-3.24-2.44-8.08-3.65-14.51-3.65h-25v51.16h26.46c6.72,0,11.82-1.23,15.27-3.69,3.46-2.46,5.19-5.88,5.19-10.27,0-2.97-.71-5.48-2.12-7.53ZM981.1,61.09c2.87,0,5.08.49,6.61,1.46,1.53.97,2.3,2.49,2.3,4.53s-.77,3.57-2.3,4.57c-1.54,1-3.74,1.5-6.61,1.5h-11.77v-12.06h11.77ZM990.16,92.88c-1.61,1.02-3.92,1.53-6.94,1.53h-13.89v-12.64h13.89c3.02,0,5.33.51,6.94,1.53,1.61,1.02,2.41,2.63,2.41,4.82s-.8,3.73-2.41,4.75Z"/><path d="M1050.51,103.33h12.42l-22.95-51.16h-11.69l-22.73,51.16h12.13l4.56-10.96h23.7l4.56,10.96ZM1026,83.38l8.11-19.5,8.11,19.5h-16.22Z"/><polygon points="862.88 115.89 862.88 131.26 850.29 115.89 845.44 115.89 845.44 141.23 851.23 141.23 851.23 125.86 863.82 141.23 868.67 141.23 868.67 115.89 862.88 115.89"/><polygon points="879.33 136.52 879.33 130.66 891.1 130.66 891.1 126.06 879.33 126.06 879.33 120.6 892.65 120.6 892.65 115.89 873.51 115.89 873.51 141.23 893.12 141.23 893.12 136.52 879.33 136.52"/><path d="M904.21,141.23v-20.56h-8.11v-4.78h22.08v4.78h-8.11v20.56h-5.86Z"/><polygon points="954.86 115.89 948.96 133.83 943.17 115.89 937.74 115.89 931.77 133.7 926.05 115.89 919.97 115.89 928.3 141.23 934.56 141.23 940.3 124.05 945.92 141.23 952.15 141.23 960.47 115.89 954.86 115.89"/><path d="M973.84,141.66c-2,0-3.85-.33-5.54-.98-1.69-.65-3.16-1.57-4.42-2.75-1.26-1.18-2.23-2.57-2.91-4.16s-1.03-3.33-1.03-5.21.34-3.65,1.03-5.23c.69-1.58,1.66-2.96,2.91-4.14,1.25-1.18,2.72-2.1,4.4-2.75,1.68-.65,3.52-.98,5.52-.98s3.84.32,5.52.96c1.68.64,3.14,1.55,4.4,2.73,1.25,1.18,2.23,2.57,2.91,4.16s1.03,3.34,1.03,5.25-.34,3.63-1.03,5.23c-.69,1.6-1.66,3-2.91,4.18-1.25,1.18-2.72,2.09-4.4,2.73-1.68.64-3.51.96-5.48.96ZM973.8,136.7c1.13,0,2.18-.2,3.13-.6.95-.4,1.79-.96,2.52-1.7.72-.74,1.28-1.59,1.68-2.57.4-.98.6-2.07.6-3.27s-.2-2.3-.6-3.28c-.4-.98-.96-1.83-1.68-2.57-.72-.74-1.56-1.3-2.52-1.7-.95-.4-2-.6-3.13-.6s-2.18.2-3.15.6c-.97.4-1.8.97-2.52,1.7-.71.74-1.27,1.59-1.66,2.57-.4.98-.6,2.07-.6,3.28s.2,2.3.6,3.27c.4.98.95,1.83,1.66,2.57.71.74,1.55,1.3,2.52,1.7.96.4,2.01.6,3.15.6Z"/><path d="M1013.05,140.96l-5.5-7.94c1.59-.71,2.82-1.73,3.7-3.06.89-1.36,1.34-3,1.34-4.9s-.45-3.51-1.34-4.89c-.89-1.38-2.16-2.43-3.8-3.17-1.64-.74-3.6-1.1-5.86-1.1h-10.97v25.33h5.9v-7.09h5.07c.15,0,.29-.01.44-.02l4.74,6.84h6.3ZM1005.3,121.81c.92.76,1.38,1.84,1.38,3.24s-.46,2.49-1.38,3.26c-.92.77-2.27,1.16-4.05,1.16h-4.74v-8.79h4.74c1.79,0,3.14.38,4.05,1.14Z"/><polygon points="1033.37 141.23 1040.25 141.23 1029.12 127.2 1039.6 115.89 1033.08 115.89 1021.86 127.72 1021.86 115.89 1016.03 115.89 1016.03 141.23 1021.86 141.23 1021.86 134.79 1025.23 131.28 1033.37 141.23"/><path d="M727.9,104.71h-71.66V0h71.66c24.6,0,44.54,19.94,44.54,44.54v15.64c0,24.6-19.94,44.54-44.54,44.54" style="fill:#89d900;"/><path d="M746.38,157.06h-90.13v-52.35c0-28.91,23.44-52.35,52.35-52.35h37.78c28.91,0,52.35,23.44,52.35,52.35s-23.44,52.35-52.35,52.35" style="fill:#aaaba6;"/><path d="M772.44,59.31v.87c0,24.6-19.93,44.53-44.55,44.53h-71.65c0-14.46,5.87-27.54,15.32-37.02,9.48-9.48,22.56-15.33,37.04-15.33h37.77c9.5,0,18.4,2.53,26.07,6.95" style="fill:#53702b;"/><path d="M0,58.94h27.3c15.94,0,25.58,9.45,25.58,23.1v.19c0,15.46-12.02,23.48-27.01,23.48h-11.17v20.05H0V58.94ZM26.34,92.64c7.35,0,11.65-4.39,11.65-10.12v-.19c0-6.59-4.59-10.12-11.94-10.12h-11.36v20.43h11.64Z"/><path d="M59.31,100.47v-.19c0-14.7,11.84-26.63,27.78-26.63s27.59,11.74,27.59,26.44v.19c0,14.7-11.84,26.63-27.78,26.63s-27.59-11.74-27.59-26.44ZM100.36,100.47v-.19c0-7.54-5.44-14.13-13.46-14.13s-13.27,6.39-13.27,13.94v.19c0,7.54,5.44,14.13,13.46,14.13s13.27-6.4,13.27-13.94Z"/><path d="M118.63,74.6h14.7l8.21,31.02,9.65-31.21h12.51l9.73,31.31,8.4-31.12h14.41l-15.94,51.55h-13.07l-9.83-31.41-10.03,31.41h-12.98l-15.75-51.55Z"/><path d="M200.18,100.47v-.19c0-14.6,10.4-26.63,25.29-26.63,17.09,0,24.92,13.27,24.92,27.78,0,1.14-.1,2.48-.19,3.82h-35.61c1.43,6.59,6.02,10.02,12.51,10.02,4.87,0,8.4-1.53,12.41-5.25l8.3,7.35c-4.77,5.92-11.64,9.55-20.9,9.55-15.37,0-26.73-10.79-26.73-26.44ZM236.27,96.17c-.85-6.49-4.68-10.88-10.79-10.88s-9.93,4.29-11.07,10.88h21.86Z"/><path d="M261.21,74.6h14.51v10.31c2.96-7.06,7.73-11.64,16.32-11.26v15.18h-.76c-9.65,0-15.56,5.83-15.56,18.04v18.9h-14.51v-51.17Z"/><path d="M297.22,100.47v-.19c0-14.6,10.4-26.63,25.29-26.63,17.09,0,24.92,13.27,24.92,27.78,0,1.14-.1,2.48-.19,3.82h-35.61c1.43,6.59,6.02,10.02,12.51,10.02,4.87,0,8.4-1.53,12.41-5.25l8.3,7.35c-4.77,5.92-11.64,9.55-20.9,9.55-15.37,0-26.73-10.79-26.73-26.44ZM333.3,96.17c-.85-6.49-4.68-10.88-10.79-10.88s-9.93,4.29-11.07,10.88h21.86Z"/><path d="M355.95,100.28v-.19c0-17.09,11.17-26.44,23.29-26.44,7.73,0,12.51,3.53,15.94,7.64v-25.2h14.51v69.69h-14.51v-7.35c-3.53,4.77-8.4,8.31-15.94,8.31-11.93,0-23.29-9.36-23.29-26.44ZM395.38,100.28v-.19c0-8.5-5.64-14.13-12.41-14.13s-12.51,5.54-12.51,14.13v.19c0,8.5,5.73,14.13,12.51,14.13s12.41-5.63,12.41-14.13Z"/><path d="M465.87,119.08v6.68h-14.51V56.08h14.51v25.87c3.53-4.77,8.4-8.31,15.94-8.31,11.93,0,23.29,9.35,23.29,26.44v.19c0,17.08-11.16,26.44-23.29,26.44-7.73,0-12.51-3.53-15.94-7.64ZM490.59,100.28v-.19c0-8.5-5.73-14.13-12.51-14.13s-12.41,5.64-12.41,14.13v.19c0,8.5,5.64,14.13,12.41,14.13s12.51-5.54,12.51-14.13Z"/><path d="M547.04,74.6h15.09l-19.66,52.41c-3.92,10.41-8.11,14.32-16.8,14.32-5.25,0-9.16-1.34-12.89-3.53l4.87-10.5c1.91,1.15,4.3,2.01,6.21,2.01,2.48,0,3.82-.77,5.06-3.34l-20.05-51.36h15.37l11.64,34.84,11.17-34.84Z"/><circle cx="600.98" cy="116.09" r="8.96"/><circle cx="600.98" cy="85.61" r="8.96"/><rect x="1101.19" y="2.46" width="8.07" height="185.56" rx="4.03" ry="4.03"/></svg>