<?xml version="1.0" encoding="UTF-8"?><svg id="Layer_1" xmlns="http://www.w3.org/2000/svg" width="1920" height="342.39" viewBox="0 0 1920 342.39"><path d="M0,13.84h131.97c77.06,0,123.67,45.68,123.67,111.67v.92c0,74.75-58.14,113.52-130.59,113.52h-53.99v96.9H0V13.84ZM127.36,176.73c35.53,0,56.29-21.23,56.29-48.91v-.92c0-31.84-22.15-48.91-57.68-48.91h-54.91v98.75h56.3Z" style="fill:#19134a;"/><path d="M300.86,89.52h70.14v49.84c14.3-34.15,37.37-56.3,78.9-54.45v73.37h-3.69c-46.61,0-75.21,28.15-75.21,87.21v91.37h-70.14V89.52Z" style="fill:#19134a;"/><path d="M474.82,214.57v-.92c0-70.6,50.29-128.74,122.28-128.74,82.6,0,120.44,64.14,120.44,134.28,0,5.54-.46,12-.92,18.46h-172.12c6.92,31.84,29.07,48.45,60.45,48.45,23.53,0,40.61-7.38,59.99-25.38l40.14,35.53c-23.07,28.61-56.3,46.14-101.06,46.14-74.3,0-129.2-52.14-129.2-127.82ZM649.24,193.8c-4.15-31.38-22.61-52.6-52.14-52.6s-47.99,20.76-53.53,52.6h105.67Z" style="fill:#19134a;"/><path d="M750.28,304.09l29.99-46.14c26.76,19.38,54.91,29.53,77.98,29.53,20.3,0,29.53-7.38,29.53-18.46v-.92c0-15.23-24-20.3-51.22-28.61-34.61-10.15-73.83-26.3-73.83-74.29v-.92c0-50.3,40.61-78.44,90.44-78.44,31.37,0,65.52,10.61,92.29,28.61l-26.77,48.45c-24.45-14.3-48.91-23.07-66.91-23.07-17.07,0-25.84,7.38-25.84,17.07v.92c0,13.84,23.53,20.3,50.3,29.53,34.61,11.54,74.75,28.15,74.75,73.37v.92c0,54.91-41.07,79.83-94.6,79.83-34.61,0-73.37-11.54-106.13-37.38Z" style="fill:#19134a;"/><path d="M1002.68,0h73.83v62.29h-73.83V0ZM1004.53,89.52h70.14v247.33h-70.14V89.52Z" style="fill:#19134a;"/><path d="M1148.03,13.84h149.97c36.92,0,65.99,10.15,84.45,28.61,14.76,14.77,22.15,32.76,22.15,54.91v.92c0,36.45-19.38,56.76-42.45,69.68,37.38,14.3,60.45,35.99,60.45,79.37v.92c0,59.06-47.99,88.6-120.9,88.6h-153.66V13.84ZM1334,109.36c0-21.23-16.61-33.22-46.61-33.22h-70.14v68.29h65.53c31.37,0,51.22-10.15,51.22-34.15v-.92ZM1299.39,203.5h-82.14v71.06h84.44c31.38,0,50.3-11.07,50.3-35.07v-.92c0-21.69-16.15-35.07-52.6-35.07Z" style="fill:#ff6a45;"/><path d="M1461.8,214.57v-.92c0-71.06,57.22-128.74,134.28-128.74s133.35,56.76,133.35,127.82v.92c0,71.06-57.22,128.74-134.28,128.74s-133.35-56.76-133.35-127.82ZM1660.22,214.57v-.92c0-36.45-26.3-68.29-65.06-68.29s-64.14,30.92-64.14,67.37v.92c0,36.45,26.3,68.29,65.06,68.29s64.14-30.92,64.14-67.37Z" style="fill:#ff6a45;"/><path d="M1791.72,266.71v-117.21h-29.53v-59.99h29.53V26.3h70.14v63.22h58.14v59.99h-58.14v105.67c0,16.15,6.92,24,22.61,24,12.92,0,24.46-3.23,34.61-8.77v56.3c-14.76,8.77-31.84,14.31-55.37,14.31-42.92,0-71.99-17.08-71.99-74.29Z" style="fill:#ff6a45;"/></svg>